<svg width="20" height="20" viewBox="0 0 20 20" fill="none" xmlns="http://www.w3.org/2000/svg">
<g clip-path="url(#clip0_54_1008)">
<path fill-rule="evenodd" clip-rule="evenodd" d="M10 -0.000976562C13.7451 -0.000976562 16.8659 3.11983 16.8659 6.86488C16.8659 8.08716 16.4457 9.29257 15.8586 10.3847C15.2691 11.4811 14.4889 12.5048 13.7137 13.3763C12.937 14.2496 12.1522 14.9848 11.5408 15.5042C11.2354 15.7636 10.9681 15.9736 10.762 16.1224C10.6602 16.1958 10.5648 16.2604 10.4825 16.3098C10.4425 16.3338 10.3937 16.3615 10.3418 16.3855C10.3159 16.3974 10.2787 16.4134 10.2344 16.4275C10.1995 16.4386 10.1123 16.4648 10 16.4648C9.88678 16.4648 9.79889 16.4382 9.76389 16.4269C9.71931 16.4125 9.68199 16.3964 9.65611 16.3844C9.60409 16.3601 9.55524 16.3322 9.51519 16.3079C9.43291 16.2581 9.33759 16.1929 9.23588 16.1189C9.02992 15.9692 8.76272 15.7578 8.45748 15.4966C7.84635 14.9741 7.06195 14.2351 6.28565 13.3595C5.51089 12.4857 4.73101 11.461 4.14175 10.3672C3.55502 9.27806 3.13418 8.07757 3.13418 6.86488C3.13418 3.11983 6.25498 -0.000976562 10 -0.000976562ZM10 8.9154C8.86755 8.9154 7.94951 7.99736 7.94951 6.86488C7.94951 5.73241 8.86755 4.81436 10 4.81436C11.1325 4.81436 12.0505 5.73241 12.0505 6.86488C12.0505 7.99736 11.1325 8.9154 10 8.9154ZM14.4274 14.5092C14.691 14.2129 14.9547 13.9025 15.2136 13.58H17.1323C17.418 13.58 17.6763 13.7503 17.7889 14.0129L19.9284 19.0055C20.023 19.2262 20.0004 19.4796 19.8683 19.6801C19.7361 19.8805 19.512 20.0011 19.272 20.0011H0.728081C0.48798 20.0011 0.26394 19.8805 0.131767 19.6801C-0.000407096 19.4796 -0.0230309 19.2262 0.0715504 19.0055L2.21122 14.0129C2.32378 13.7503 2.58202 13.58 2.86776 13.58H4.80395C5.05691 13.895 5.31441 14.1985 5.57168 14.4886C6.51672 15.5546 7.47179 16.4545 8.21532 17.0902C8.58676 17.4079 8.91058 17.6641 9.15856 17.8444C9.28128 17.9336 9.39396 18.0105 9.48934 18.0682C9.53592 18.0965 9.59025 18.1274 9.64658 18.1536C9.67464 18.1668 9.71382 18.1836 9.75998 18.1985C9.79657 18.2104 9.88574 18.2372 9.99995 18.2372C10.1132 18.2372 10.2017 18.2108 10.2381 18.1992C10.2841 18.1845 10.3231 18.1678 10.3511 18.1548C10.4074 18.1288 10.4616 18.0982 10.5082 18.0702C10.6036 18.0129 10.7164 17.9366 10.8391 17.8481C11.0873 17.6691 11.4112 17.4148 11.7828 17.0991C12.5266 16.4672 13.4821 15.5721 14.4274 14.5092Z" fill="white"/>
</g>
<defs>
<clipPath id="clip0_54_1008">
<rect width="20" height="20" fill="white"/>
</clipPath>
</defs>
</svg>
