<svg width="20" height="20" viewBox="0 0 20 20" fill="none" xmlns="http://www.w3.org/2000/svg">
<g clip-path="url(#clip0_53_789)">
<path fill-rule="evenodd" clip-rule="evenodd" d="M18.153 7.55982C17.8852 7.2919 17.5217 7.14139 17.1429 7.14139H14.2857C13.9069 7.14139 13.5435 6.99089 13.2756 6.72297C13.0077 6.45506 12.8572 6.0917 12.8572 5.71282V2.85567C12.8572 2.09792 12.5562 1.37119 12.0204 0.835373C11.4845 0.299555 10.7578 -0.00146484 10 -0.00146484C9.24229 -0.00146484 8.51556 0.299555 7.97975 0.835373C7.44393 1.37119 7.14292 2.09792 7.14292 2.85567V5.71282C7.14292 6.0917 6.9924 6.45506 6.72449 6.72297C6.45659 6.99089 6.09322 7.14139 5.71435 7.14139H2.85716C2.47827 7.14139 2.11492 7.2919 1.847 7.55982C1.5791 7.82772 1.42859 8.19109 1.42859 8.56996V11.4278C1.42859 11.8223 1.74839 12.1421 2.14287 12.1421H17.8572C18.2516 12.1421 18.5714 11.8223 18.5714 11.4278V8.56996C18.5714 8.19109 18.4209 7.82772 18.153 7.55982ZM1.44199 18.4775L2.14287 13.5714H17.8572L18.558 18.4775C18.567 18.5401 18.5714 18.6031 18.5714 18.6662C18.5714 19.4028 17.9743 19.9999 17.2377 19.9999H13.2143V17.1428C13.2143 16.5511 12.7346 16.0714 12.1429 16.0714C11.5511 16.0714 11.0714 16.5511 11.0714 17.1428V19.9999H2.76237C2.02575 19.9999 1.42859 19.4028 1.42859 18.6662C1.42859 18.6031 1.43307 18.5401 1.44199 18.4775Z" fill="#FF9000"/>
</g>
<defs>
<clipPath id="clip0_53_789">
<rect width="20" height="20" fill="white"/>
</clipPath>
</defs>
</svg>
