<svg width="20" height="20" viewBox="0 0 20 20" fill="none" xmlns="http://www.w3.org/2000/svg">
<path d="M14.9984 17.5036C13.8142 17.5036 12.8541 16.5434 12.8541 15.3591C12.8541 14.1748 13.8142 13.2148 14.9984 13.2148C16.1829 13.2148 17.1429 14.1748 17.1429 15.3591C17.1429 16.5434 16.1829 17.5036 14.9984 17.5036Z" fill="#FF9000"/>
<path d="M4.9985 17.5036C3.8142 17.5036 2.85413 16.5434 2.85413 15.3591C2.85413 14.1748 3.8142 13.2148 4.9985 13.2148C6.1828 13.2148 7.14287 14.1748 7.14287 15.3591C7.14287 16.5434 6.1828 17.5036 4.9985 17.5036Z" fill="#FF9000"/>
<path fill-rule="evenodd" clip-rule="evenodd" d="M6.83103 3.57152C6.37073 3.55191 5.91616 3.68118 5.53487 3.94045C5.14793 4.20357 4.85776 4.58611 4.70866 5.02964L4.70779 5.03224L3.77019 7.85724H2.14286C1.57453 7.85724 1.02949 8.08299 0.627629 8.48487C0.225764 8.88672 0 9.43177 0 10.0001V12.8572C0 13.4255 0.225764 13.9706 0.627629 14.3725C0.862856 14.6076 1.14714 14.7826 1.45643 14.8872C1.68744 13.1371 3.18521 11.7863 4.99846 11.7863C6.85053 11.7863 8.37346 13.1955 8.55359 15.0001H11.4434C11.6235 13.1955 13.1464 11.7863 14.9984 11.7863C16.812 11.7863 18.31 13.1375 18.5406 14.8882C18.851 14.7836 19.1364 14.6085 19.3724 14.3725C19.7743 13.9706 20 13.4255 20 12.8572V10.0001C20 9.43177 19.7743 8.88672 19.3724 8.48487C18.9706 8.08299 18.4254 7.85724 17.8571 7.85724H15.5263L14.6536 5.04552L14.6487 5.02957C14.4997 4.58602 14.2092 4.20357 13.8223 3.94045C13.441 3.68118 12.9864 3.55191 12.5261 3.57152C9.88688 3.57152 10.5686 3.57152 6.83103 3.57152Z" fill="#FF9000"/>
</svg>
