<svg width="24" height="24" viewBox="0 0 24 24" fill="none" xmlns="http://www.w3.org/2000/svg">
<path fill-rule="evenodd" clip-rule="evenodd" d="M1.28571 2.57143H3.67886L4.32857 5.04C4.33384 5.05956 4.33955 5.07899 4.34571 5.09829L6.00514 13.404C6.00967 13.4489 6.01654 13.4935 6.02571 13.5377L6.74571 17.1377V17.1429C6.84451 17.6269 7.10751 18.0619 7.49018 18.3743C7.87286 18.6867 8.35172 18.8572 8.84571 18.8571H19.2857C19.6267 18.8571 19.9537 18.7217 20.1949 18.4806C20.436 18.2394 20.5714 17.9124 20.5714 17.5714C20.5714 17.2304 20.436 16.9034 20.1949 16.6623C19.9537 16.4212 19.6267 16.2857 19.2857 16.2857H9.19714L8.76857 14.1429H20.7429H20.76H20.7617C20.8217 14.1429 20.9931 14.148 21.1509 14.1223C21.4336 14.0745 21.7 13.9572 21.9262 13.7809C22.1525 13.6047 22.3313 13.375 22.4469 13.1126C22.5394 12.9 22.5857 12.6309 22.6011 12.5417L22.6063 12.5177L23.9623 5.89714L23.9657 5.88C24.0105 5.63341 24.0008 5.37998 23.9372 5.13756C23.8736 4.89513 23.7576 4.66958 23.5975 4.47677C23.4373 4.28396 23.2369 4.12856 23.0103 4.02152C22.7837 3.91447 22.5363 3.85836 22.2857 3.85714H22.2823H6.67371L6.10286 1.67143C5.99581 1.19677 5.7304 0.772673 5.3503 0.468898C4.97019 0.165122 4.49801 -0.000243071 4.01143 2.68176e-07H1.28571C0.944722 2.68176e-07 0.617695 0.135459 0.376577 0.376577C0.135459 0.617695 0 0.944722 0 1.28571C0 1.62671 0.135459 1.95373 0.376577 2.19485C0.617695 2.43597 0.944722 2.57143 1.28571 2.57143ZM19.9371 21.9429C19.9371 21.4205 19.7296 20.9195 19.3602 20.5501C18.9908 20.1807 18.4898 19.9731 17.9674 19.9731C17.445 19.9731 16.944 20.1807 16.5746 20.5501C16.2052 20.9195 15.9977 21.4205 15.9977 21.9429C16.0128 22.455 16.2269 22.941 16.5945 23.2979C16.9621 23.6548 17.4542 23.8545 17.9666 23.8545C18.4789 23.8545 18.9711 23.6548 19.3387 23.2979C19.7063 22.941 19.9203 22.455 19.9354 21.9429H19.9371ZM9.39429 19.9749C9.65773 19.9671 9.92005 20.0123 10.1657 20.1077C10.4114 20.2032 10.6354 20.3469 10.8245 20.5305C11.0136 20.7141 11.1639 20.9338 11.2666 21.1765C11.3692 21.4193 11.4221 21.6802 11.4221 21.9437C11.4221 22.2073 11.3692 22.4681 11.2666 22.7109C11.1639 22.9536 11.0136 23.1733 10.8245 23.3569C10.6354 23.5405 10.4114 23.6843 10.1657 23.7797C9.92005 23.8752 9.65773 23.9203 9.39429 23.9126C8.88217 23.8975 8.39609 23.6834 8.0392 23.3158C7.6823 22.9482 7.48267 22.4561 7.48267 21.9437C7.48267 21.4314 7.6823 20.9392 8.0392 20.5716C8.39609 20.204 8.88217 19.99 9.39429 19.9749Z" fill="#FF9000"/>
</svg>
