<svg width="16" height="16" viewBox="0 0 16 16" fill="none" xmlns="http://www.w3.org/2000/svg">
<g clip-path="url(#clip0_58_3641)">
<path fill-rule="evenodd" clip-rule="evenodd" d="M6.58571 2.30007C6.96079 1.92499 7.4695 1.71429 7.99993 1.71429C8.53036 1.71429 9.03907 1.92499 9.41415 2.30007C9.65113 2.53706 9.8225 2.82739 9.91656 3.14286H6.0833C6.17736 2.82739 6.34873 2.53706 6.58571 2.30007ZM4.32985 3.14286C4.45027 2.36938 4.81311 1.64831 5.37353 1.08789C6.0701 0.391326 7.01484 0 7.99993 0C8.98502 0 9.92976 0.391326 10.6263 1.08789C11.1868 1.64831 11.5496 2.36938 11.67 3.14286H14.8571C15.3304 3.14286 15.7142 3.52662 15.7142 4C15.7142 4.47339 15.3304 4.85714 14.8571 4.85714H13.7142V14.2857C13.7142 14.7403 13.5336 15.1765 13.2122 15.4979C12.8907 15.8194 12.4546 16 11.9999 16H3.99993C3.54527 16 3.10923 15.8194 2.78775 15.4979C2.46626 15.1765 2.28564 14.7403 2.28564 14.2857V4.85714H1.14279C0.6694 4.85714 0.285645 4.47339 0.285645 4C0.285645 3.52662 0.6694 3.14286 1.14279 3.14286H4.32985ZM5.71422 6.71595C6.10871 6.71595 6.4285 7.03576 6.4285 7.43024V12.0034C6.4285 12.3978 6.10871 12.7177 5.71422 12.7177C5.31972 12.7177 4.99993 12.3978 4.99993 12.0034V7.43024C4.99993 7.03576 5.31972 6.71595 5.71422 6.71595ZM10.9999 7.43024C10.9999 7.03576 10.6801 6.71595 10.2856 6.71595C9.89115 6.71595 9.57136 7.03576 9.57136 7.43024V12.0034C9.57136 12.3978 9.89115 12.7177 10.2856 12.7177C10.6801 12.7177 10.9999 12.3978 10.9999 12.0034V7.43024Z" fill="#939393"/>
</g>
<defs>
<clipPath id="clip0_58_3641">
<rect width="16" height="16" fill="white"/>
</clipPath>
</defs>
</svg>
