<svg width="16" height="16" viewBox="0 0 16 16" fill="none" xmlns="http://www.w3.org/2000/svg">
<g clip-path="url(#clip0_52_666)">
<path fill-rule="evenodd" clip-rule="evenodd" d="M7.99771 0.0524906C9.18556 0.0521515 10.3584 0.318085 11.4299 0.830733C12.5014 1.34338 13.4444 2.0897 14.1895 3.01481C14.9346 3.93992 15.4628 5.02028 15.7354 6.17644C16.0079 7.3326 16.0178 8.53515 15.7644 9.69564C15.5109 10.8561 15.0006 11.9451 14.2708 12.8823C13.5411 13.8196 12.6105 14.5814 11.5476 15.1116C10.4847 15.6418 9.3164 15.9271 8.12871 15.9463C6.94102 15.9655 5.76412 15.7183 4.68457 15.2228L0.723424 15.9393C0.624088 15.9571 0.521824 15.9482 0.427032 15.9136C0.332239 15.879 0.248298 15.8199 0.183743 15.7424C0.119189 15.6648 0.0763236 15.5716 0.0595059 15.4721C0.0426881 15.3726 0.0525178 15.2704 0.0879954 15.1759L1.224 12.1519C0.486105 10.9476 0.0824977 9.56836 0.0547192 8.15622C0.0269407 6.74409 0.375995 5.35006 1.06595 4.11764C1.75591 2.88521 2.76184 1.85893 3.98019 1.14442C5.19854 0.429916 6.5853 0.0530061 7.99771 0.0524906ZM7.56457 5.07992C7.71986 5.01595 7.88739 4.98717 8.05513 4.99566C8.22287 5.00414 8.38664 5.04968 8.53468 5.12899C8.68273 5.20831 8.81136 5.31943 8.91135 5.45437C9.01134 5.58932 9.08019 5.74474 9.11296 5.90946C9.14574 6.07418 9.14161 6.24412 9.10089 6.40706C9.06017 6.57 8.98386 6.72189 8.87745 6.85183C8.77104 6.98177 8.63717 7.08652 8.48545 7.15857C8.33374 7.23061 8.16795 7.26815 8 7.26849C7.81055 7.26849 7.62887 7.34375 7.49492 7.4777C7.36096 7.61165 7.28571 7.79334 7.28571 7.98278V9.21706C7.28571 9.4065 7.36096 9.58818 7.49492 9.72214C7.62887 9.85609 7.81055 9.93135 8 9.93135C8.18944 9.93135 8.37112 9.85609 8.50507 9.72214C8.63903 9.58818 8.71428 9.4065 8.71428 9.21706V8.5942C9.17207 8.46151 9.58384 8.20393 9.90344 7.85033C10.223 7.49673 10.4378 7.06109 10.5237 6.59226C10.6096 6.12344 10.5632 5.63995 10.3897 5.19602C10.2162 4.75209 9.9225 4.36526 9.54148 4.0789C9.16046 3.79254 8.70721 3.61797 8.23255 3.57477C7.75788 3.53157 7.28056 3.62144 6.85411 3.83431C6.42766 4.04718 6.06893 4.37463 5.81815 4.77995C5.56736 5.18527 5.43444 5.65243 5.43428 6.12906C5.43428 6.3185 5.50954 6.50018 5.64349 6.63414C5.77745 6.76809 5.95913 6.84335 6.14857 6.84335C6.33801 6.84335 6.51969 6.76809 6.65364 6.63414C6.7876 6.50018 6.86285 6.3185 6.86285 6.12906C6.86289 5.90424 6.92957 5.68447 7.05447 5.49753C7.17937 5.31059 7.35688 5.16486 7.56457 5.07878V5.07992ZM8 13.0171C7.72872 13.0168 7.46867 12.9087 7.27706 12.7167C7.08545 12.5246 6.97798 12.2643 6.97828 11.9931C6.97858 11.7218 7.08664 11.4617 7.27868 11.2701C7.47071 11.0785 7.731 10.971 8.00228 10.9713H8.00457C8.27585 10.9717 8.53589 11.0797 8.7275 11.2717C8.91911 11.4638 9.02658 11.7241 9.02628 11.9953C9.02598 12.2666 8.91792 12.5267 8.72588 12.7183C8.53385 12.9099 8.27356 13.0174 8.00228 13.0171H8Z" fill="white"/>
</g>
<defs>
<clipPath id="clip0_52_666">
<rect width="16" height="16" fill="white"/>
</clipPath>
</defs>
</svg>
