<svg width="70" height="70" viewBox="0 0 70 70" fill="none" xmlns="http://www.w3.org/2000/svg">
<g clip-path="url(#clip0_84_1862)">
<path fill-rule="evenodd" clip-rule="evenodd" d="M17.5 0C7.835 0 0 7.835 0 17.5V52.5C0 62.165 7.835 70 17.5 70H52.5C62.165 70 70 62.165 70 52.5V17.5C70 7.835 62.165 0 52.5 0H17.5ZM52.514 26.0926C53.8075 24.4754 53.5455 22.1156 51.928 20.8218C50.311 19.528 47.9511 19.7901 46.6573 21.4074L28.9279 43.5692L21.8355 38.25C20.1787 37.0074 17.8282 37.3432 16.5856 39C15.343 40.6569 15.6787 43.0074 17.3355 44.25L27.3356 51.75C28.956 52.9655 31.2485 52.674 32.5138 51.0925L52.514 26.0926Z" fill="#FF9000"/>
</g>
<defs>
<clipPath id="clip0_84_1862">
<rect width="70" height="70" fill="white"/>
</clipPath>
</defs>
</svg>
