<?xml version="1.0" encoding="utf-8"?><svg viewBox="0 0 502.66 502.66" xmlns="http://www.w3.org/2000/svg" xmlns:xlink="http://www.w3.org/1999/xlink"><style>:root>svg{display:none}:root>svg:target{display:block}</style><svg viewBox="0 0 20 20" id="address" xmlns="http://www.w3.org/2000/svg"><g clip-path="url(#aa)"><path fill-rule="evenodd" clip-rule="evenodd" d="M10-.001c3.745 0 6.866 3.12 6.866 6.866 0 1.222-.42 2.428-1.007 3.52-.59 1.096-1.37 2.12-2.145 2.991a22.316 22.316 0 0 1-2.173 2.128c-.306.26-.573.47-.779.618a4.143 4.143 0 0 1-.28.188c-.04.024-.088.052-.14.076a.772.772 0 0 1-.686-.001 1.498 1.498 0 0 1-.14-.077 4.125 4.125 0 0 1-.28-.19c-.206-.149-.473-.36-.779-.621a22.624 22.624 0 0 1-2.171-2.137c-.775-.874-1.555-1.899-2.144-2.993-.587-1.089-1.008-2.29-1.008-3.502C3.134 3.12 6.255-.001 10-.001Zm0 8.916a2.05 2.05 0 1 1 0-4.1 2.05 2.05 0 0 1 0 4.1Zm4.427 5.594c.264-.296.528-.607.787-.929h1.918c.286 0 .544.17.657.433l2.14 4.993a.714.714 0 0 1-.657.995H.728a.714.714 0 0 1-.656-.995l2.14-4.993a.714.714 0 0 1 .656-.433h1.936c.253.315.51.618.768.909a27.54 27.54 0 0 0 2.643 2.601c.372.318.696.574.944.754.122.09.235.166.33.224.047.028.101.06.158.086.028.013.067.03.113.044a.779.779 0 0 0 .591-.043c.056-.026.11-.057.157-.085.096-.057.208-.133.331-.222.248-.179.572-.433.944-.749.744-.632 1.7-1.527 2.644-2.59Z"/></g><defs><clipPath id="aa"><path d="M0 0h20v20H0z"/></clipPath></defs></svg><svg viewBox="0 0 9 6" id="angle" xmlns="http://www.w3.org/2000/svg"><path d="m.354.354 4 4 4-4"/></svg><svg viewBox="0 0 9 16" id="angle-left" xmlns="http://www.w3.org/2000/svg"><path d="m7.684.5-7 7.5 7 7.5"/></svg><svg viewBox="0 0 9 16" id="angle-right" xmlns="http://www.w3.org/2000/svg"><path d="m.5 15.5 7-7.5L.5.5"/></svg><svg viewBox="0 0 20 20" id="brush" xmlns="http://www.w3.org/2000/svg"><g clip-path="url(#ea)"><path fill-rule="evenodd" clip-rule="evenodd" d="M18.153 7.56a1.428 1.428 0 0 0-1.01-.419h-2.857a1.429 1.429 0 0 1-1.429-1.428V2.856a2.857 2.857 0 1 0-5.714 0v2.857A1.429 1.429 0 0 1 5.714 7.14H2.857A1.429 1.429 0 0 0 1.43 8.57v2.858c0 .394.32.714.714.714h15.714c.395 0 .714-.32.714-.714V8.57c0-.379-.15-.742-.418-1.01ZM1.442 18.478l.7-4.907h15.715l.701 4.906A1.334 1.334 0 0 1 17.238 20h-4.024v-2.856a1.071 1.071 0 0 0-2.143 0V20H2.762a1.334 1.334 0 0 1-1.32-1.523Z"/></g><defs><clipPath id="ea"><path d="M0 0h20v20H0z"/></clipPath></defs></svg><svg viewBox="0 0 20 20" id="burger" xmlns="http://www.w3.org/2000/svg"><path fill-rule="evenodd" clip-rule="evenodd" d="M1.429 5a1.429 1.429 0 0 0 0 2.857H18.57a1.429 1.429 0 1 0 0-2.857H1.43Zm0 7.143a1.429 1.429 0 1 0 0 2.857H18.57a1.429 1.429 0 1 0 0-2.857H1.43Z"/></svg><svg viewBox="0 0 20 20" id="car" xmlns="http://www.w3.org/2000/svg"><path d="M14.998 17.504a2.144 2.144 0 1 1 0-4.29 2.144 2.144 0 0 1 0 4.29Zm-10 0a2.144 2.144 0 1 1 0-4.29 2.144 2.144 0 0 1 0 4.29Z"/><path fill-rule="evenodd" clip-rule="evenodd" d="M6.831 3.572A2.143 2.143 0 0 0 4.709 5.03l-.001.002-.938 2.825H2.143A2.143 2.143 0 0 0 0 10v2.857a2.143 2.143 0 0 0 1.456 2.03A3.574 3.574 0 0 1 8.554 15h2.89a3.573 3.573 0 0 1 7.097-.112A2.144 2.144 0 0 0 20 12.858V10a2.143 2.143 0 0 0-2.143-2.143h-2.33l-.873-2.811-.005-.016a2.143 2.143 0 0 0-2.123-1.458H6.831Z"/></svg><svg viewBox="0 0 24 24" id="cart" xmlns="http://www.w3.org/2000/svg"><path fill-rule="evenodd" clip-rule="evenodd" d="M1.286 2.571h2.393l.65 2.469c.005.02.01.039.017.058l1.66 8.306a1.3 1.3 0 0 0 .02.134l.72 3.6v.005a2.143 2.143 0 0 0 2.1 1.714h10.44a1.286 1.286 0 1 0 0-2.571H9.197l-.428-2.143h11.993c.06 0 .231.005.389-.02a1.73 1.73 0 0 0 1.296-1.01c.092-.213.139-.482.154-.571l.005-.024 1.356-6.62.004-.018a1.717 1.717 0 0 0-1.68-2.023H6.674l-.571-2.186A2.143 2.143 0 0 0 4.01 0H1.286a1.286 1.286 0 0 0 0 2.571Zm18.651 19.372a1.97 1.97 0 1 0-3.94 0 1.97 1.97 0 0 0 3.938 0h.002ZM9.394 19.975a1.97 1.97 0 1 1 .117 3.938 1.97 1.97 0 0 1-.117-3.938Z"/></svg><svg viewBox="0 0 14 14" id="circle" xmlns="http://www.w3.org/2000/svg"><g clip-path="url(#ia)" stroke-linecap="round" stroke-linejoin="round"><path d="M3.25 6a2.75 2.75 0 1 0 0-5.5 2.75 2.75 0 0 0 0 5.5Zm7.5 0a2.75 2.75 0 1 0 0-5.5 2.75 2.75 0 0 0 0 5.5Zm-7.5 7.5a2.75 2.75 0 1 0 0-5.5 2.75 2.75 0 0 0 0 5.5Zm7.5 0a2.75 2.75 0 1 0 0-5.5 2.75 2.75 0 0 0 0 5.5Z"/></g><defs><clipPath id="ia"><path d="M0 0h14v14H0z"/></clipPath></defs></svg><svg viewBox="0 0 14 14" id="clock" xmlns="http://www.w3.org/2000/svg"><g clip-path="url(#ja)" stroke-linecap="round" stroke-linejoin="round"><path d="M7 13.5a6.5 6.5 0 1 0 0-13 6.5 6.5 0 0 0 0 13Z"/><path d="M7 4.5V7l2.54 2.96"/></g><defs><clipPath id="ja"><path d="M0 0h14v14H0z"/></clipPath></defs></svg><svg viewBox="0 0 16 16" id="delete" xmlns="http://www.w3.org/2000/svg"><g clip-path="url(#ka)"><path fill-rule="evenodd" clip-rule="evenodd" d="M6.586 2.3a2 2 0 0 1 3.33.843H6.084a2 2 0 0 1 .503-.843Zm-2.256.843a3.714 3.714 0 0 1 7.34 0h3.187a.857.857 0 0 1 0 1.714h-1.143v9.429A1.715 1.715 0 0 1 12 16H4a1.714 1.714 0 0 1-1.714-1.714V4.857H1.143a.857.857 0 1 1 0-1.714H4.33Zm1.384 3.573c.395 0 .714.32.714.714v4.573a.714.714 0 0 1-1.428 0V7.43c0-.394.32-.714.714-.714ZM11 7.43a.714.714 0 0 0-1.429 0v4.573a.714.714 0 0 0 1.429 0V7.43Z"/></g><defs><clipPath id="ka"><path d="M0 0h16v16H0z"/></clipPath></defs></svg><svg viewBox="0 0 14 14" id="email" xmlns="http://www.w3.org/2000/svg"><g clip-path="url(#la)" stroke-linecap="round" stroke-linejoin="round"><path d="M10.05 7a3 3 0 1 1-6 0 3 3 0 0 1 5.999 0Z"/><path d="M10.05 7v1.3c0 3.49 5.47.2 2.6-4.54A6.59 6.59 0 0 0 7 .5 6.5 6.5 0 1 0 9.52 13"/></g><defs><clipPath id="la"><path d="M0 0h14v14H0z"/></clipPath></defs></svg><svg viewBox="0 0 16 16" id="help" xmlns="http://www.w3.org/2000/svg"><g clip-path="url(#ma)"><path fill-rule="evenodd" clip-rule="evenodd" d="M7.998.052a7.947 7.947 0 1 1-3.313 15.17l-3.962.717a.57.57 0 0 1-.635-.763l1.136-3.024A7.947 7.947 0 0 1 7.998.052ZM7.565 5.08A1.137 1.137 0 1 1 8 7.268a.714.714 0 0 0-.714.715v1.234a.714.714 0 1 0 1.428 0v-.623a2.566 2.566 0 1 0-3.28-2.465.714.714 0 0 0 1.429 0 1.137 1.137 0 0 1 .702-1.05ZM8 13.017a1.023 1.023 0 0 1 .002-2.046h.003a1.023 1.023 0 0 1-.003 2.046H8Z"/></g><defs><clipPath id="ma"><path d="M0 0h16v16H0z"/></clipPath></defs></svg><svg viewBox="0 0 502.664 502.664" xml:space="preserve" id="icon" xmlns="http://www.w3.org/2000/svg"><path d="M153.821 358.226 0 274.337v-46.463l153.821-83.414v54.574L46.636 250.523l107.185 53.431v54.272zm26.273 29.358L282.103 115.08h32.227L212.084 387.584h-31.99zm168.749-29.358v-54.272l107.164-52.999-107.164-52.59v-53.927l153.821 83.522v46.183l-153.821 84.083z"/></svg><svg viewBox="0 0 10 17" id="next" xmlns="http://www.w3.org/2000/svg"><path d="m1 16 7-7.5L1 1"/></svg><svg viewBox="0 0 10 17" id="prev" xmlns="http://www.w3.org/2000/svg"><path d="m8.368 1-7 7.5 7 7.5"/></svg><svg viewBox="0 0 18 18" id="search" xmlns="http://www.w3.org/2000/svg"><path d="M7.571 14.643A7.071 7.071 0 1 0 7.571.5a7.071 7.071 0 0 0 0 14.143Zm9.643 2.571-4.5-4.5"/></svg></svg>